HIERARCHY
ROOT Hips
{
    OFFSET 0.000000 0.000000 0.000000
    CHANNELS 6 Xposition Yposition Zposition Zrotation Yrotation Xrotation
    JOINT Chest
    {
        OFFSET 0.000000 1.634758 -0.000000
        CHANNELS 3 Zrotation Yrotation Xrotation
        JOINT Chest2
        {
            OFFSET 0.000000 2.197341 0.000000
            CHANNELS 3 Zrotation Yrotation Xrotation
            JOINT Neck
            {
                OFFSET 0.000000 0.961544 0.000000
                CHANNELS 3 Zrotation Yrotation Xrotation
                JOINT Head
                {
                    OFFSET 0.000000 0.632542 -0.032565
                    CHANNELS 3 Zrotation Yrotation Xrotation
                    End Site
                    {
                        OFFSET -0.000001 0.439502 2.922845
                    }
                }
            }
            JOINT LeftCollar
            {
                OFFSET 0.167536 0.778237 -0.168280
                CHANNELS 3 Zrotation Yrotation Xrotation
                JOINT LeftShoulder
                {
                    OFFSET 0.831514 -0.002900 0.006458
                    CHANNELS 3 Zrotation Yrotation Xrotation
                    JOINT LeftElbow
                    {
                        OFFSET 2.272872 -0.026639 0.059314
                        CHANNELS 3 Zrotation Yrotation Xrotation
                        JOINT LeftWrist
                        {
                            OFFSET 2.081982 -0.024402 0.054333
                            CHANNELS 3 Zrotation Yrotation Xrotation
                            JOINT LeftHandThumb1
                            {
                                OFFSET 0.218903 -0.128645 0.283837
                                CHANNELS 3 Zrotation Yrotation Xrotation
                                JOINT LeftHandThumb2
                                {
                                    OFFSET 0.137157 -0.025101 0.077902
                                    CHANNELS 3 Zrotation Yrotation Xrotation
                                    JOINT LeftHandThumb3
                                    {
                                        OFFSET 0.165861 -0.067014 0.039226
                                        CHANNELS 3 Zrotation Yrotation Xrotation
                                        End Site
                                        {
                                            OFFSET 0.241157 -0.045065 0.107930
                                        }
                                    }
                                }
                            }
                            JOINT LeftHandFore1
                            {
                                OFFSET 0.767340 -0.016076 0.196678
                                CHANNELS 3 Zrotation Yrotation Xrotation
                                JOINT LeftHandFore2
                                {
                                    OFFSET 0.208860 0.057445 0.008533
                                    CHANNELS 3 Zrotation Yrotation Xrotation
                                    JOINT LeftHandFore3
                                    {
                                        OFFSET 0.125750 0.030396 0.005086
                                        CHANNELS 3 Zrotation Yrotation Xrotation
                                        End Site
                                        {
                                            OFFSET 0.186719 0.049913 0.003376
                                        }
                                    }
                                }
                            }
                            JOINT LeftHandMiddle1
                            {
                                OFFSET 0.709887 -0.008320 0.018526
                                CHANNELS 3 Zrotation Yrotation Xrotation
                                JOINT LeftHandMiddle2
                                {
                                    OFFSET 0.239210 -0.052813 0.007305
                                    CHANNELS 3 Zrotation Yrotation Xrotation
                                    JOINT LeftHandMiddle3
                                    {
                                        OFFSET 0.130000 -0.066740 0.005386
                                        CHANNELS 3 Zrotation Yrotation Xrotation
                                        End Site
                                        {
                                            OFFSET 0.207416 -0.111906 0.009267
                                        }
                                    }
                                }
                            }
                            JOINT LeftHandRing1
                            {
                                OFFSET 0.743817 -0.005823 -0.153668
                                CHANNELS 3 Zrotation Yrotation Xrotation
                                JOINT LeftHandRing2
                                {
                                    OFFSET 0.352972 0.005175 -0.010835
                                    CHANNELS 3 Zrotation Yrotation Xrotation
                                    JOINT LeftHandRing3
                                    {
                                        OFFSET 0.136383 -0.002034 0.001042
                                        CHANNELS 3 Zrotation Yrotation Xrotation
                                        End Site
                                        {
                                            OFFSET 0.119771 -0.008577 0.001061
                                        }
                                    }
                                }
                            }
                            JOINT LeftHandLittle1
                            {
                                OFFSET 0.689408 -0.053302 -0.308304
                                CHANNELS 3 Zrotation Yrotation Xrotation
                                JOINT LeftHandLittle2
                                {
                                    OFFSET 0.193251 -0.018757 -0.018874
                                    CHANNELS 3 Zrotation Yrotation Xrotation
                                    JOINT LeftHandLittle3
                                    {
                                        OFFSET 0.116994 -0.025997 -0.011519
                                        CHANNELS 3 Zrotation Yrotation Xrotation
                                        End Site
                                        {
                                            OFFSET 0.189726 -0.012367 -0.011818
                                        }
                                    }
                                }
                            }
                        }
                    }
                }
            }
            JOINT RightCollar
            {
                OFFSET -0.167536 0.778237 -0.168280
                CHANNELS 3 Zrotation Yrotation Xrotation
                JOINT RightShoulder
                {
                    OFFSET -0.831514 -0.002900 0.006457
                    CHANNELS 3 Zrotation Yrotation Xrotation
                    JOINT RightElbow
                    {
                        OFFSET -2.272872 -0.026639 0.059313
                        CHANNELS 3 Zrotation Yrotation Xrotation
                        JOINT RightWrist
                        {
                            OFFSET -2.081982 -0.024402 0.054331
                            CHANNELS 3 Zrotation Yrotation Xrotation
                            JOINT RightHandThumb1
                            {
                                OFFSET -0.218911 -0.128571 0.283837
                                CHANNELS 3 Zrotation Yrotation Xrotation
                                JOINT RightHandThumb2
                                {
                                    OFFSET -0.137157 -0.025101 0.077902
                                    CHANNELS 3 Zrotation Yrotation Xrotation
                                    JOINT RightHandThumb3
                                    {
                                        OFFSET -0.165861 -0.067014 0.039226
                                        CHANNELS 3 Zrotation Yrotation Xrotation
                                        End Site
                                        {
                                            OFFSET -0.229436 -0.065997 0.121819
                                        }
                                    }
                                }
                            }
                            JOINT RightHandFore1
                            {
                                OFFSET -0.767344 -0.015991 0.196679
                                CHANNELS 3 Zrotation Yrotation Xrotation
                                JOINT RightHandFore2
                                {
                                    OFFSET -0.209952 0.053308 0.008662
                                    CHANNELS 3 Zrotation Yrotation Xrotation
                                    JOINT RightHandFore3
                                    {
                                        OFFSET -0.126320 0.027905 0.005164
                                        CHANNELS 3 Zrotation Yrotation Xrotation
                                        End Site
                                        {
                                            OFFSET -0.187349 0.046091 0.011947
                                        }
                                    }
                                }
                            }
                            JOINT RightHandMiddle1
                            {
                                OFFSET -0.709887 -0.008302 0.018525
                                CHANNELS 3 Zrotation Yrotation Xrotation
                                JOINT RightHandMiddle2
                                {
                                    OFFSET -0.226783 -0.092519 0.008451
                                    CHANNELS 3 Zrotation Yrotation Xrotation
                                    JOINT RightHandMiddle3
                                    {
                                        OFFSET -0.135487 -0.054791 0.005042
                                        CHANNELS 3 Zrotation Yrotation Xrotation
                                        End Site
                                        {
                                            OFFSET -0.216702 -0.092810 0.007535
                                        }
                                    }
                                }
                            }
                            JOINT RightHandRing1
                            {
                                OFFSET -0.743819 -0.005785 -0.153669
                                CHANNELS 3 Zrotation Yrotation Xrotation
                                JOINT RightHandRing2
                                {
                                    OFFSET -0.352810 -0.012289 -0.010371
                                    CHANNELS 3 Zrotation Yrotation Xrotation
                                    JOINT RightHandRing3
                                    {
                                        OFFSET -0.135801 -0.008990 -0.009071
                                        CHANNELS 3 Zrotation Yrotation Xrotation
                                        End Site
                                        {
                                            OFFSET -0.118924 -0.014680 -0.007859
                                        }
                                    }
                                }
                            }
                            JOINT RightHandLittle1
                            {
                                OFFSET -0.689403 -0.053298 -0.308303
                                CHANNELS 3 Zrotation Yrotation Xrotation
                                JOINT RightHandLittle2
                                {
                                    OFFSET -0.191856 -0.029891 -0.018791
                                    CHANNELS 3 Zrotation Yrotation Xrotation
                                    JOINT RightHandLittle3
                                    {
                                        OFFSET -0.115284 -0.032709 -0.011632
                                        CHANNELS 3 Zrotation Yrotation Xrotation
                                        End Site
                                        {
                                            OFFSET -0.187442 -0.023117 -0.024892
                                        }
                                    }
                                }
                            }
                        }
                    }
                }
            }
        }
    }
    JOINT LeftHip
    {
        OFFSET 0.685143 0.673822 -0.044491
        CHANNELS 3 Zrotation Yrotation Xrotation
        JOINT LeftKnee
        {
            OFFSET 0.085364 -3.750208 0.017676
            CHANNELS 3 Zrotation Yrotation Xrotation
            JOINT LeftAnkle
            {
                OFFSET 0.094583 -4.155206 0.019585
                CHANNELS 3 Zrotation Yrotation Xrotation
                JOINT LeftToe
                {
                    OFFSET -0.000000 -0.395925 0.621478
                    CHANNELS 3 Zrotation Yrotation Xrotation
                    End Site
                    {
                        OFFSET -0.000000 -0.077878 0.321152
                    }
                }
            }
        }
    }
    JOINT RightHip
    {
        OFFSET -0.685143 0.673822 -0.044492
        CHANNELS 3 Zrotation Yrotation Xrotation
        JOINT RightKnee
        {
            OFFSET -0.085364 -3.750208 0.017677
            CHANNELS 3 Zrotation Yrotation Xrotation
            JOINT RightAnkle
            {
                OFFSET -0.094583 -4.155206 0.019585
                CHANNELS 3 Zrotation Yrotation Xrotation
                JOINT RightToe
                {
                    OFFSET -0.000000 -0.395925 0.621478
                    CHANNELS 3 Zrotation Yrotation Xrotation
                    End Site
                    {
                        OFFSET -0.000000 -0.077878 0.321152
                    }
                }
            }
        }
    }
}
MOTION
Frames: 4
Frame Time: 0.033333
0.033676 8.296625 -0.462110 -177.464691 -8.075319 179.828598 -7.690483 3.988138 3.234601 1.537763 -0.664156 -5.739066 28.209070 -24.476301 4.889654 4.243799 -55.173218 8.243101 -10.988401 1.986098 -0.151160 -29.308691 12.919024 81.738869 171.830353 -84.876274 -172.535400 1.213537 -6.289336 -81.529823 -0.000022 -0.000012 -0.000009 0.000006 0.000002 0.000000 -0.000001 -0.000000 0.000001 0.000000 -0.000002 0.000008 -0.000002 -0.000002 0.000001 0.000000 -0.000003 -0.000002 -0.000014 -0.000000 0.000005 -0.000002 0.000002 0.000000 -0.000002 0.000003 0.000000 -0.000005 -0.000000 0.000006 0.000002 -0.000000 0.000000 0.000003 0.000002 0.000001 -0.000020 0.000002 0.000005 -0.000001 0.000002 -0.000001 0.000004 -0.000000 -0.000001 4.560218 10.570578 0.031346 88.234200 28.532131 36.625938 -32.309776 88.773277 -32.978844 -11.092727 -9.512553 -62.409721 -0.000005 0.000012 0.000005 0.000003 -0.000003 -0.000002 0.000002 -0.000005 -0.000003 -0.000009 0.000003 0.000000 0.000000 -0.000002 0.000000 -0.000005 0.000002 0.000000 -0.000003 -0.000005 0.000005 0.000000 0.000003 0.000000 0.000000 -0.000002 -0.000002 -0.000014 0.000005 0.000007 -0.000002 0.000002 0.000002 0.000002 -0.000002 0.000000 0.000000 -0.000000 0.000007 0.000000 -0.000005 0.000003 0.000000 0.000005 -0.000002 9.864103 -4.036734 -62.843430 0.051480 0.362775 16.150703 9.429910 2.143222 51.865376 -0.000001 0.000003 -0.000008 40.659576 -3.824868 -47.672817 0.000001 0.000001 0.000002 -17.753244 33.042580 52.105309 0.000001 0.000003 0.000009
0.033587 8.296625 -0.462110 -177.464691 -8.075319 179.828598 -8.046829 3.976198 3.012900 1.425883 -0.656075 -5.854494 28.194317 -24.505054 4.923009 4.260011 -55.275391 8.305989 -10.667612 2.137044 -0.143053 -24.414619 11.288815 84.555908 172.472534 -84.397484 -173.180405 0.829810 -10.568638 -82.334312 0.000006 0.000007 -0.000004 0.000003 0.000007 -0.000001 -0.000002 -0.000005 0.000001 0.000003 -0.000000 0.000002 -0.000001 -0.000002 -0.000002 0.000004 -0.000000 -0.000001 0.000011 0.000007 -0.000002 0.000003 -0.000002 0.000000 -0.000001 -0.000002 -0.000002 0.000012 0.000002 0.000000 -0.000003 -0.000003 -0.000001 -0.000003 0.000002 -0.000001 0.000000 -0.000002 0.000000 0.000001 -0.000000 -0.000001 -0.000002 -0.000003 0.000000 4.085565 10.511399 0.023472 87.549545 29.530535 35.712276 -155.297134 88.360130 -155.980911 -7.006317 -5.355897 -65.848076 0.000002 0.000007 0.000022 -0.000002 -0.000003 -0.000010 0.000000 -0.000003 -0.000002 -0.000003 -0.000009 -0.000005 -0.000003 0.000003 -0.000003 0.000002 -0.000002 -0.000002 -0.000009 -0.000008 0.000000 0.000000 -0.000000 -0.000002 0.000000 0.000003 0.000002 -0.000005 -0.000004 0.000007 0.000000 -0.000003 -0.000003 0.000002 0.000004 0.000002 0.000007 -0.000011 0.000003 0.000000 -0.000003 0.000000 0.000000 0.000002 -0.000002 9.469322 -3.789871 -62.360844 0.045723 0.342276 15.215266 9.542862 2.215505 52.423336 0.000000 -0.000006 -0.000005 40.655869 -3.830745 -47.684708 -0.000001 -0.000002 0.000002 -17.954262 32.926254 52.128044 -0.000001 -0.000002 0.000005
0.033497 8.296625 -0.462110 -177.464691 -8.075319 179.828598 -8.377257 3.958787 2.782385 1.292430 -0.646638 -5.981391 28.178341 -24.524340 4.960088 4.276832 -55.380825 8.381255 -10.346701 2.222418 -0.134649 -19.999912 10.243242 86.243492 172.435150 -84.427856 -173.142792 0.679094 -13.863733 -83.096680 0.000003 0.000005 0.000018 0.000000 0.000009 -0.000000 -0.000000 -0.000002 -0.000002 0.000004 -0.000000 0.000010 0.000005 -0.000002 -0.000002 -0.000005 0.000002 0.000000 0.000004 0.000003 0.000009 0.000002 -0.000000 0.000000 -0.000005 -0.000000 -0.000001 0.000003 0.000005 0.000013 0.000001 -0.000000 0.000001 -0.000004 -0.000000 -0.000002 -0.000002 0.000005 0.000009 -0.000006 -0.000000 0.000000 0.000004 -0.000002 -0.000001 3.702542 10.456253 0.016862 87.047806 30.241304 34.618336 -168.644577 86.395813 -169.340714 -2.752514 -1.089622 -69.108543 0.000000 0.000003 0.000009 0.000002 0.000001 -0.000002 0.000000 -0.000003 0.000000 0.000000 -0.000007 -0.000005 0.000000 0.000004 0.000000 0.000002 -0.000000 0.000003 -0.000003 -0.000003 -0.000007 0.000002 -0.000001 0.000002 -0.000002 -0.000002 0.000002 -0.000007 -0.000004 0.000000 -0.000002 -0.000003 0.000002 -0.000002 -0.000003 0.000002 0.000005 -0.000004 -0.000002 0.000000 -0.000005 0.000000 0.000000 -0.000004 0.000002 9.073367 -3.542778 -61.846737 0.039950 0.320299 14.216957 9.660315 2.290828 53.014359 -0.000002 -0.000003 -0.000005 40.652035 -3.836153 -47.696346 0.000001 0.000002 0.000002 -18.139910 32.797413 52.155037 -0.000001 -0.000004 0.000002
0.033407 8.296625 -0.462110 -177.464691 -8.075319 179.828598 -8.676922 3.935776 2.546974 1.138882 -0.635937 -6.126286 21.731026 -22.799913 7.646628 3.512551 -49.959511 13.819166 -10.033002 2.197129 -0.126289 -16.067856 9.306167 87.011269 171.793869 -84.901009 -172.498749 0.532811 -17.599310 -83.776810 0.000000 -0.000003 0.000015 0.000002 0.000002 -0.000000 0.000005 -0.000002 0.000000 0.000013 -0.000003 0.000013 -0.000003 -0.000000 0.000000 -0.000001 -0.000000 -0.000003 0.000006 -0.000003 0.000011 -0.000001 0.000005 0.000002 -0.000001 -0.000002 -0.000000 0.000013 -0.000005 0.000015 -0.000002 0.000003 0.000002 0.000003 -0.000000 0.000002 -0.000001 -0.000000 0.000010 -0.000007 -0.000002 0.000001 -0.000005 0.000002 -0.000000 3.428191 10.405277 0.011736 87.026756 30.405151 33.303535 -171.861145 84.855194 -172.566269 1.299620 3.223317 -72.076607 0.000003 0.000003 0.000026 0.000002 0.000002 -0.000005 -0.000002 -0.000002 0.000000 0.000002 0.000002 0.000015 0.000000 -0.000001 0.000000 0.000003 -0.000000 -0.000007 -0.000007 -0.000004 0.000012 0.000000 0.000003 -0.000002 0.000000 0.000001 0.000002 -0.000002 -0.000006 0.000010 0.000002 -0.000000 0.000007 0.000000 -0.000000 0.000000 0.000007 -0.000001 0.000022 0.000003 -0.000001 0.000000 -0.000002 -0.000003 0.000002 8.676141 -3.295357 -61.294632 0.034172 0.296562 13.143659 9.782552 2.361582 53.643032 -0.000001 -0.000006 -0.000005 40.648144 -3.840996 -47.707520 -0.000000 -0.000002 0.000002 -18.307312 32.653614 52.186825 0.000001 0.000003 -0.000006
